<svg xmlns="http://www.w3.org/2000/svg" version="1.1" xmlns:xlink="http://www.w3.org/1999/xlink" width="800" height="200" viewBox="0 0 800 200"><circle r="3" cx="21.08695652173913" cy="20" fill="black"></circle><circle r="3" cx="21.08695652173913" cy="20" fill="black"></circle><circle r="3" cx="21.08695652173913" cy="20" fill="black"></circle><circle r="3" cx="21.08695652173913" cy="20" fill="black"></circle><circle r="3" cx="21.08695652173913" cy="20" fill="black"></circle><circle r="3" cx="21.08695652173913" cy="60" fill="black"></circle><circle r="3" cx="21.08695652173913" cy="140" fill="black"></circle><circle r="3" cx="76.7391304347826" cy="110" fill="black"></circle><circle r="3" cx="77.82608695652175" cy="20" fill="black"></circle><circle r="3" cx="91.08695652173914" cy="20" fill="black"></circle><circle r="3" cx="114.34782608695653" cy="20" fill="black"></circle><circle r="3" cx="114.34782608695653" cy="20" fill="black"></circle><circle r="3" cx="114.34782608695653" cy="20" fill="black"></circle><circle r="3" cx="114.34782608695653" cy="70" fill="black"></circle><circle r="3" cx="114.34782608695653" cy="110" fill="black"></circle><circle r="3" cx="115.43478260869566" cy="20" fill="black"></circle><circle r="3" cx="151.08695652173915" cy="20" fill="black"></circle><circle r="3" cx="186.52173913043478" cy="20" fill="black"></circle><circle r="3" cx="186.52173913043478" cy="20" fill="black"></circle><circle r="3" cx="187.6086956521739" cy="20" fill="black"></circle><circle r="3" cx="187.6086956521739" cy="70" fill="black"></circle><circle r="3" cx="222.17391304347825" cy="20" fill="black"></circle><circle r="3" cx="222.17391304347825" cy="20" fill="black"></circle><circle r="3" cx="222.17391304347825" cy="110" fill="black"></circle><circle r="3" cx="223.2608695652174" cy="20" fill="black"></circle><circle r="3" cx="245.6521739130435" cy="70" fill="black"></circle><circle r="3" cx="251.08695652173913" cy="20" fill="black"></circle><circle r="3" cx="281.0869565217391" cy="70" fill="black"></circle><circle r="3" cx="292.17391304347825" cy="140" fill="black"></circle><circle r="3" cx="293.26086956521743" cy="20" fill="black"></circle><circle r="3" cx="304.34782608695656" cy="20" fill="black"></circle><circle r="3" cx="327.8260869565217" cy="130" fill="black"></circle><circle r="3" cx="328.9130434782609" cy="20" fill="black"></circle><circle r="3" cx="328.9130434782609" cy="70" fill="black"></circle><circle r="3" cx="330" cy="20" fill="black"></circle><circle r="3" cx="337.82608695652175" cy="20" fill="black"></circle><circle r="3" cx="352.17391304347825" cy="20" fill="black"></circle><circle r="3" cx="360" cy="90" fill="black"></circle><circle r="3" cx="366.5217391304348" cy="20" fill="black"></circle><circle r="3" cx="375.4347826086956" cy="20" fill="black"></circle><circle r="3" cx="378.9130434782609" cy="70" fill="black"></circle><circle r="3" cx="400" cy="20" fill="black"></circle><circle r="3" cx="400" cy="20" fill="black"></circle><circle r="3" cx="401.08695652173907" cy="20" fill="black"></circle><circle r="3" cx="401.08695652173907" cy="20" fill="black"></circle><circle r="3" cx="401.08695652173907" cy="40" fill="black"></circle><circle r="3" cx="420" cy="70" fill="black"></circle><circle r="3" cx="436.73913043478257" cy="20" fill="black"></circle><circle r="3" cx="436.73913043478257" cy="20" fill="black"></circle><circle r="3" cx="436.73913043478257" cy="90" fill="black"></circle><circle r="3" cx="450" cy="20" fill="black"></circle><circle r="3" cx="458.9130434782608" cy="110" fill="black"></circle><circle r="3" cx="472.17391304347825" cy="20" fill="black"></circle><circle r="3" cx="472.17391304347825" cy="60" fill="black"></circle><circle r="3" cx="473.26086956521743" cy="20" fill="black"></circle><circle r="3" cx="473.26086956521743" cy="20" fill="black"></circle><circle r="3" cx="473.26086956521743" cy="110" fill="black"></circle><circle r="3" cx="477.82608695652175" cy="40" fill="black"></circle><circle r="3" cx="490" cy="20" fill="black"></circle><circle r="3" cx="508.91304347826093" cy="20" fill="black"></circle><circle r="3" cx="508.91304347826093" cy="60" fill="black"></circle><circle r="3" cx="508.91304347826093" cy="140" fill="black"></circle><circle r="3" cx="510" cy="20" fill="black"></circle><circle r="3" cx="510" cy="90" fill="black"></circle><circle r="3" cx="525.4347826086957" cy="20" fill="black"></circle><circle r="3" cx="528.9130434782609" cy="60" fill="black"></circle><circle r="3" cx="546.7391304347826" cy="40" fill="black"></circle><circle r="3" cx="547.8260869565217" cy="20" fill="black"></circle><circle r="3" cx="581.0869565217391" cy="20" fill="black"></circle><circle r="3" cx="581.0869565217391" cy="60" fill="black"></circle><circle r="3" cx="581.0869565217391" cy="90" fill="black"></circle><circle r="3" cx="582.1739130434783" cy="20" fill="black"></circle><circle r="3" cx="582.1739130434783" cy="20" fill="black"></circle><circle r="3" cx="582.1739130434783" cy="20" fill="black"></circle><circle r="3" cx="595.6521739130435" cy="20" fill="black"></circle><circle r="3" cx="615.6521739130435" cy="20" fill="black"></circle><circle r="3" cx="621.0869565217391" cy="90" fill="black"></circle><circle r="3" cx="633.4782608695652" cy="20" fill="black"></circle><circle r="3" cx="637.8260869565217" cy="40" fill="black"></circle><circle r="3" cx="644.5652173913044" cy="130" fill="black"></circle><circle r="3" cx="654.5652173913044" cy="20" fill="black"></circle><circle r="3" cx="654.5652173913044" cy="20" fill="black"></circle><circle r="3" cx="654.5652173913044" cy="90" fill="black"></circle><circle r="3" cx="675.6521739130435" cy="20" fill="black"></circle><circle r="3" cx="687.8260869565217" cy="40" fill="black"></circle><circle r="3" cx="687.8260869565217" cy="60" fill="black"></circle><circle r="3" cx="688.9130434782609" cy="20" fill="black"></circle><circle r="3" cx="688.9130434782609" cy="20" fill="black"></circle><circle r="3" cx="688.9130434782609" cy="110" fill="black"></circle><circle r="3" cx="696.7391304347826" cy="20" fill="black"></circle><circle r="3" cx="721.0869565217391" cy="20" fill="black"></circle><circle r="3" cx="723.2608695652174" cy="20" fill="black"></circle><circle r="3" cx="723.2608695652174" cy="20" fill="black"></circle><circle r="3" cx="723.2608695652174" cy="40" fill="black"></circle><circle r="3" cx="724.3478260869565" cy="130" fill="black"></circle><circle r="3" cx="725.6521739130435" cy="20" fill="black"></circle><circle r="3" cx="743.2608695652174" cy="60" fill="black"></circle><circle r="3" cx="744.3478260869565" cy="20" fill="black"></circle><circle r="3" cx="746.7391304347826" cy="20" fill="black"></circle><circle r="3" cx="760" cy="20" fill="black"></circle><circle r="3" cx="760" cy="70" fill="black"></circle><circle r="3" cx="760" cy="130" fill="black"></circle><circle r="3" cx="762.1739130434783" cy="90" fill="black"></circle></svg>