<svg xmlns="http://www.w3.org/2000/svg" version="1.1" xmlns:xlink="http://www.w3.org/1999/xlink" width="800" height="200" viewBox="0 0 800 200"><line x1="20" y1="20" x2="780" y2="20" stroke-width="1" stroke="#cccccc"></line><line x1="20" y1="30" x2="780" y2="30" stroke-width="1" stroke="#cccccc"></line><line x1="20" y1="40" x2="780" y2="40" stroke-width="1" stroke="#cccccc"></line><line x1="20" y1="50" x2="780" y2="50" stroke-width="1" stroke="#cccccc"></line><line x1="20" y1="60" x2="780" y2="60" stroke-width="1" stroke="#cccccc"></line><line x1="20" y1="70" x2="780" y2="70" stroke-width="1" stroke="#cccccc"></line><line x1="20" y1="80" x2="780" y2="80" stroke-width="1" stroke="#cccccc"></line><line x1="20" y1="90" x2="780" y2="90" stroke-width="1" stroke="#cccccc"></line><line x1="20" y1="100" x2="780" y2="100" stroke-width="1" stroke="#cccccc"></line><line x1="20" y1="110" x2="780" y2="110" stroke-width="1" stroke="#cccccc"></line><line x1="20" y1="120" x2="780" y2="120" stroke-width="1" stroke="#cccccc"></line><line x1="20" y1="130" x2="780" y2="130" stroke-width="1" stroke="#cccccc"></line><line x1="20" y1="140" x2="780" y2="140" stroke-width="1" stroke="#cccccc"></line><line x1="20" y1="150" x2="780" y2="150" stroke-width="1" stroke="#cccccc"></line><line x1="20" y1="160" x2="780" y2="160" stroke-width="1" stroke="#cccccc"></line><circle r="3" cx="25.652173913043477" cy="40" fill="black"></circle><circle r="3" cx="25.652173913043477" cy="150" fill="black"></circle><circle r="3" cx="26.73913043478261" cy="70" fill="black"></circle><circle r="3" cx="97.82608695652173" cy="60" fill="black"></circle><circle r="3" cx="97.82608695652173" cy="130" fill="black"></circle><circle r="3" cx="122.17391304347827" cy="40" fill="black"></circle><circle r="3" cx="122.17391304347827" cy="110" fill="black"></circle><circle r="3" cx="122.17391304347827" cy="150" fill="black"></circle><circle r="3" cx="140" cy="70" fill="black"></circle><circle r="3" cx="171.08695652173913" cy="70" fill="black"></circle><circle r="3" cx="193.2608695652174" cy="70" fill="black"></circle><circle r="3" cx="193.2608695652174" cy="130" fill="black"></circle><circle r="3" cx="213.26086956521738" cy="40" fill="black"></circle><circle r="3" cx="213.26086956521738" cy="110" fill="black"></circle><circle r="3" cx="243.26086956521738" cy="70" fill="black"></circle><circle r="3" cx="261.0869565217391" cy="70" fill="black"></circle><circle r="3" cx="261.0869565217391" cy="110" fill="black"></circle><circle r="3" cx="291.0869565217391" cy="40" fill="black"></circle><circle r="3" cx="291.0869565217391" cy="110" fill="black"></circle><circle r="3" cx="291.0869565217391" cy="150" fill="black"></circle><circle r="3" cx="318.9130434782609" cy="40" fill="black"></circle><circle r="3" cx="320" cy="160" fill="black"></circle><circle r="3" cx="341.0869565217391" cy="60" fill="black"></circle><circle r="3" cx="342.17391304347825" cy="40" fill="black"></circle><circle r="3" cx="388.9130434782609" cy="40" fill="black"></circle><circle r="3" cx="388.9130434782609" cy="110" fill="black"></circle><circle r="3" cx="410.00000000000006" cy="130" fill="black"></circle><circle r="3" cx="411.0869565217391" cy="60" fill="black"></circle><circle r="3" cx="411.0869565217391" cy="80" fill="black"></circle><circle r="3" cx="434.5652173913043" cy="80" fill="black"></circle><circle r="3" cx="458.9130434782608" cy="40" fill="black"></circle><circle r="3" cx="458.9130434782608" cy="110" fill="black"></circle><circle r="3" cx="481.08695652173907" cy="40" fill="black"></circle><circle r="3" cx="482.17391304347825" cy="110" fill="black"></circle><circle r="3" cx="505.4347826086956" cy="60" fill="black"></circle><circle r="3" cx="505.4347826086956" cy="140" fill="black"></circle><circle r="3" cx="506.7391304347826" cy="70" fill="black"></circle><circle r="3" cx="516.7391304347825" cy="40" fill="black"></circle><circle r="3" cx="552.1739130434783" cy="40" fill="black"></circle><circle r="3" cx="575.4347826086956" cy="110" fill="black"></circle><circle r="3" cx="576.5217391304348" cy="40" fill="black"></circle><circle r="3" cx="601.0869565217391" cy="40" fill="black"></circle><circle r="3" cx="606.7391304347826" cy="60" fill="black"></circle><circle r="3" cx="648.9130434782609" cy="30" fill="black"></circle><circle r="3" cx="648.9130434782609" cy="40" fill="black"></circle><circle r="3" cx="648.9130434782609" cy="100" fill="black"></circle><circle r="3" cx="648.9130434782609" cy="110" fill="black"></circle><circle r="3" cx="671.0869565217391" cy="40" fill="black"></circle><circle r="3" cx="672.1739130434783" cy="30" fill="black"></circle><circle r="3" cx="672.1739130434783" cy="100" fill="black"></circle><circle r="3" cx="672.1739130434783" cy="110" fill="black"></circle><circle r="3" cx="718.9130434782609" cy="70" fill="black"></circle><circle r="3" cx="748.9130434782609" cy="30" fill="black"></circle><circle r="3" cx="765.4347826086956" cy="110" fill="black"></circle></svg>