<svg xmlns="http://www.w3.org/2000/svg" version="1.1" xmlns:xlink="http://www.w3.org/1999/xlink" width="800" height="200" viewBox="0 0 800 200"><circle r="5" cx="39.55882352941177" cy="20" fill="black"></circle><circle r="5" cx="50.73529411764706" cy="40" fill="black"></circle><circle r="5" cx="53.529411764705884" cy="70" fill="black"></circle><circle r="5" cx="56.3235294117647" cy="60" fill="black"></circle><circle r="5" cx="59.11764705882353" cy="70" fill="black"></circle><circle r="5" cx="61.911764705882355" cy="90" fill="black"></circle><circle r="5" cx="64.70588235294117" cy="80" fill="black"></circle><circle r="5" cx="67.5" cy="90" fill="black"></circle><circle r="5" cx="70.29411764705883" cy="60" fill="black"></circle><circle r="5" cx="73.08823529411765" cy="50" fill="black"></circle><circle r="5" cx="75.88235294117646" cy="60" fill="black"></circle><circle r="5" cx="78.6764705882353" cy="110" fill="black"></circle><circle r="5" cx="81.47058823529412" cy="100" fill="black"></circle><circle r="5" cx="84.26470588235294" cy="110" fill="black"></circle><circle r="5" cx="87.05882352941177" cy="40" fill="black"></circle><circle r="5" cx="89.8529411764706" cy="30" fill="black"></circle><circle r="5" cx="92.6470588235294" cy="40" fill="black"></circle><circle r="5" cx="95.44117647058823" cy="70" fill="black"></circle><circle r="5" cx="98.23529411764706" cy="60" fill="black"></circle><circle r="5" cx="101.02941176470588" cy="70" fill="black"></circle><circle r="5" cx="103.82352941176471" cy="20" fill="black"></circle><circle r="5" cx="129.90196078431373" cy="30" fill="black"></circle><circle r="5" cx="135.49019607843138" cy="30" fill="black"></circle><circle r="5" cx="137.3529411764706" cy="40" fill="black"></circle><circle r="5" cx="139.2156862745098" cy="60" fill="black"></circle><circle r="5" cx="141.078431372549" cy="80" fill="black"></circle><circle r="5" cx="142.94117647058823" cy="40" fill="black"></circle><circle r="5" cx="144.80392156862746" cy="60" fill="black"></circle><circle r="5" cx="146.66666666666666" cy="80" fill="black"></circle><circle r="5" cx="148.52941176470588" cy="100" fill="black"></circle><circle r="5" cx="150.3921568627451" cy="110" fill="black"></circle><circle r="5" cx="152.2549019607843" cy="130" fill="black"></circle><circle r="5" cx="154.11764705882354" cy="140" fill="black"></circle><circle r="5" cx="161.10294117647058" cy="150" fill="black"></circle><circle r="5" cx="162.5" cy="140" fill="black"></circle><circle r="5" cx="163.89705882352942" cy="130" fill="black"></circle><circle r="5" cx="165.2941176470588" cy="150" fill="black"></circle><circle r="5" cx="172.27941176470588" cy="140" fill="black"></circle><circle r="5" cx="173.6764705882353" cy="130" fill="black"></circle><circle r="5" cx="175.0735294117647" cy="120" fill="black"></circle><circle r="5" cx="176.47058823529412" cy="130" fill="black"></circle><circle r="5" cx="177.86764705882354" cy="80" fill="black"></circle><circle r="5" cx="204.41176470588235" cy="40" fill="black"></circle><circle r="5" cx="207.2058823529412" cy="70" fill="black"></circle><circle r="5" cx="210" cy="40" fill="black"></circle><circle r="5" cx="212.7941176470588" cy="90" fill="black"></circle><circle r="5" cx="215.58823529411762" cy="60" fill="black"></circle><circle r="5" cx="218.3823529411765" cy="110" fill="black"></circle><circle r="5" cx="221.1764705882353" cy="90" fill="black"></circle><circle r="5" cx="223.97058823529412" cy="120" fill="black"></circle><circle r="5" cx="226.76470588235293" cy="110" fill="black"></circle><circle r="5" cx="229.55882352941177" cy="140" fill="black"></circle><circle r="5" cx="232.35294117647058" cy="120" fill="black"></circle><circle r="5" cx="235.14705882352942" cy="160" fill="black"></circle><circle r="5" cx="237.94117647058823" cy="140" fill="black"></circle><circle r="5" cx="240.73529411764707" cy="30" fill="black"></circle><circle r="5" cx="243.52941176470588" cy="160" fill="black"></circle><circle r="5" cx="243.52941176470588" cy="40" fill="black"></circle><circle r="5" cx="249.1176470588235" cy="120" fill="black"></circle><circle r="5" cx="249.1176470588235" cy="160" fill="black"></circle><circle r="5" cx="251.91176470588238" cy="140" fill="black"></circle><circle r="5" cx="251.91176470588238" cy="30" fill="black"></circle><circle r="5" cx="257.5" cy="110" fill="black"></circle><circle r="5" cx="257.5" cy="140" fill="black"></circle><circle r="5" cx="263.0882352941176" cy="120" fill="black"></circle><circle r="5" cx="263.0882352941176" cy="160" fill="black"></circle><circle r="5" cx="268.6764705882353" cy="90" fill="black"></circle><circle r="5" cx="268.6764705882353" cy="120" fill="black"></circle><circle r="5" cx="274.2647058823529" cy="110" fill="black"></circle><circle r="5" cx="274.2647058823529" cy="140" fill="black"></circle><circle r="5" cx="288.2352941176471" cy="130" fill="black"></circle><circle r="5" cx="288.2352941176471" cy="160" fill="black"></circle><circle r="5" cx="293.8235294117647" cy="110" fill="black"></circle><circle r="5" cx="293.8235294117647" cy="160" fill="black"></circle><circle r="5" cx="295.6862745098039" cy="80" fill="black"></circle><circle r="5" cx="295.6862745098039" cy="130" fill="black"></circle><circle r="5" cx="297.54901960784315" cy="60" fill="black"></circle><circle r="5" cx="299.4117647058824" cy="80" fill="black"></circle><circle r="5" cx="299.4117647058824" cy="130" fill="black"></circle><circle r="5" cx="301.2745098039216" cy="70" fill="black"></circle><circle r="5" cx="301.2745098039216" cy="120" fill="black"></circle><circle r="5" cx="303.1372549019608" cy="60" fill="black"></circle><circle r="5" cx="305" cy="40" fill="black"></circle><circle r="5" cx="310.5882352941176" cy="40" fill="black"></circle><circle r="5" cx="310.5882352941176" cy="80" fill="black"></circle><circle r="5" cx="312.45098039215685" cy="30" fill="black"></circle><circle r="5" cx="312.45098039215685" cy="70" fill="black"></circle><circle r="5" cx="319.9019607843137" cy="60" fill="black"></circle><circle r="5" cx="319.9019607843137" cy="80" fill="black"></circle><circle r="5" cx="323.62745098039215" cy="40" fill="black"></circle><circle r="5" cx="383.2352941176471" cy="40" fill="black"></circle><circle r="5" cx="386.0294117647059" cy="80" fill="black"></circle><circle r="5" cx="388.8235294117647" cy="110" fill="black"></circle><circle r="5" cx="391.61764705882354" cy="120" fill="black"></circle><circle r="5" cx="394.4117647058824" cy="110" fill="black"></circle><circle r="5" cx="397.20588235294116" cy="90" fill="black"></circle><circle r="5" cx="400" cy="80" fill="black"></circle><circle r="5" cx="402.79411764705884" cy="40" fill="black"></circle><circle r="5" cx="416.764705882353" cy="40" fill="black"></circle><circle r="5" cx="419.55882352941177" cy="80" fill="black"></circle><circle r="5" cx="422.3529411764706" cy="110" fill="black"></circle><circle r="5" cx="425.1470588235294" cy="120" fill="black"></circle><circle r="5" cx="427.94117647058823" cy="160" fill="black"></circle><circle r="5" cx="430.735294117647" cy="50" fill="black"></circle><circle r="5" cx="433.52941176470586" cy="80" fill="black"></circle><circle r="5" cx="436.32352941176475" cy="90" fill="black"></circle><circle r="5" cx="439.11764705882354" cy="80" fill="black"></circle><circle r="5" cx="441.9117647058824" cy="60" fill="black"></circle><circle r="5" cx="444.70588235294116" cy="50" fill="black"></circle><circle r="5" cx="467.05882352941177" cy="70" fill="black"></circle><circle r="5" cx="469.8529411764706" cy="40" fill="black"></circle><circle r="5" cx="472.6470588235294" cy="20" fill="black"></circle><circle r="5" cx="475.44117647058823" cy="40" fill="black"></circle><circle r="5" cx="478.235294117647" cy="60" fill="black"></circle><circle r="5" cx="481.02941176470586" cy="90" fill="black"></circle><circle r="5" cx="483.82352941176475" cy="110" fill="black"></circle><circle r="5" cx="486.61764705882354" cy="120" fill="black"></circle><circle r="5" cx="489.4117647058824" cy="140" fill="black"></circle><circle r="5" cx="492.20588235294116" cy="120" fill="black"></circle><circle r="5" cx="495" cy="90" fill="black"></circle><circle r="5" cx="497.79411764705884" cy="70" fill="black"></circle><circle r="5" cx="500.5882352941176" cy="90" fill="black"></circle><circle r="5" cx="503.38235294117646" cy="110" fill="black"></circle><circle r="5" cx="506.17647058823525" cy="160" fill="black"></circle><circle r="5" cx="508.97058823529414" cy="50" fill="black"></circle><circle r="5" cx="511.764705882353" cy="60" fill="black"></circle><circle r="5" cx="514.5588235294117" cy="50" fill="black"></circle><circle r="5" cx="517.3529411764706" cy="110" fill="black"></circle><circle r="5" cx="522.9411764705883" cy="160" fill="black"></circle><circle r="5" cx="525.7352941176471" cy="140" fill="black"></circle><circle r="5" cx="528.5294117647059" cy="90" fill="black"></circle><circle r="5" cx="534.1176470588235" cy="140" fill="black"></circle><circle r="5" cx="536.9117647058823" cy="120" fill="black"></circle><circle r="5" cx="539.7058823529412" cy="80" fill="black"></circle></svg>